<?xml version="1.0" encoding="iso-8859-1"?>
<!-- Generator: Adobe Illustrator 19.0.0, SVG Export Plug-In . SVG Version: 6.00 Build 0)  -->
<svg version="1.1" id="Layer_1" xmlns="http://www.w3.org/2000/svg" xmlns:xlink="http://www.w3.org/1999/xlink" x="0px" y="0px"
	 viewBox="0 0 512 512" style="enable-background:new 0 0 512 512;" xml:space="preserve">
<g>
	<g>
		<g>
			<path d="M158.487,166.09c-49.576,0-89.91,40.333-89.91,89.91s40.333,89.91,89.91,89.91c49.575,0,89.909-40.333,89.909-89.91
				S208.063,166.09,158.487,166.09z M158.485,310.19c-29.881,0-54.19-24.31-54.19-54.19c0-29.881,24.31-54.19,54.19-54.19
				c29.881,0,54.189,24.31,54.189,54.19C212.674,285.881,188.365,310.19,158.485,310.19z"/>
			<path d="M506.749,383.998l-35.433-35.435l35.434-35.434c11.206-11.206,3.273-30.488-12.628-30.488H314.719
				c1.473-8.664,2.252-17.563,2.252-26.641c0-87.39-71.096-158.486-158.486-158.486S0,168.611,0,256s71.096,158.486,158.485,158.486
				h335.636C509.97,414.486,517.994,395.241,506.749,383.998z M158.485,378.766C90.792,378.766,35.72,323.695,35.72,256
				c0-67.693,55.073-122.766,122.766-122.766S281.251,188.307,281.251,256C281.251,323.697,226.174,378.766,158.485,378.766z
				 M258.823,378.767c19.448-15.888,35.179-36.453,45.406-60.405h146.775l-17.574,17.574c-6.975,6.972-6.975,18.281,0,25.256
				l17.574,17.575H258.823z"/>
		</g>
	</g>
</g>
<g>
</g>
<g>
</g>
<g>
</g>
<g>
</g>
<g>
</g>
<g>
</g>
<g>
</g>
<g>
</g>
<g>
</g>
<g>
</g>
<g>
</g>
<g>
</g>
<g>
</g>
<g>
</g>
<g>
</g>
</svg>
