<svg viewBox="0 0 514 514" xmlns="http://www.w3.org/2000/svg">
 <!-- Created with UXWing SVG Editor - https://uxwing.com/svg-icon-editor/ -->

 <g>
  <title>background</title>
  <rect fill="none" id="canvas_background" height="514" width="514" y="-1" x="-1"/>
  <g display="none" overflow="visible" y="0" x="0" height="100%" width="100%" id="canvasGrid">
   <rect fill="url(#gridpattern)" stroke-width="0" y="0" x="0" height="100%" width="100%"/>
  </g>
 </g>
 <g>
  <title>Layer 1</title>
  <g id="svg_7">
   <g transform="matrix(1.9290121985070527,0,0,1.9290121985070527,0,0) " id="svg_5">
    <path stroke-width="0" stroke="#FF0000" fill="#FFFFFF" id="svg_6" d="m93.985404,72.845413l77.45,0c6.25,0 11.93,2.56 16.05,6.67c4.11,4.11 6.67,9.79 6.67,16.05l0,74.29c0,6.25 -2.56,11.93 -6.67,16.05l-0.32,0.29c-4.09,3.94 -9.64,6.38 -15.73,6.38l-77.45,0c-6.25,0 -11.93,-2.56 -16.05,-6.67l-0.3,-0.32c-3.94,-4.1 -6.37,-9.65 -6.37,-15.73l0,-74.3c0,-6.25 2.55,-11.93 6.67,-16.05c4.11,-4.11 9.79,-6.66 16.05,-6.66l0,0zm53.11,73.05l0,0c-3.28,-3.26 -5.54,-5.99 -7.79,-8.72c-1.95,-2.35 -3.9,-4.72 -6.52,-7.41l-15.49,16.85c-0.1,0.11 -0.22,0.2 -0.36,0.27c-1.06,0.54 -2.25,0.73 -3.4,0.55c-1.12,-0.17 -2.2,-0.68 -3.07,-1.54c-1.09,-1.07 -1.65,-2.5 -1.66,-3.92c-0.01,-1.44 0.52,-2.87 1.6,-3.97c5.83,-6.43 12.07,-13.94 18.11,-19.99c1.24,-1.23 2.69,-1.84 4.15,-1.83c1.44,0.01 2.85,0.6 4.05,1.76c5.34,4.94 13.32,14.33 18.28,20.06c1.06,1.08 1.6,2.49 1.6,3.9c0,1.39 -0.51,2.78 -1.53,3.86l-0.1,0.1c-1.08,1.08 -2.51,1.63 -3.94,1.63c-1.39,0 -2.78,-0.51 -3.86,-1.54l-0.07,-0.06l0,0zm24.33,-62.81l-77.44,0c-3.43,0 -6.54,1.41 -8.81,3.67c-2.26,2.26 -3.67,5.38 -3.67,8.81l0,74.29c0,3.33 1.31,6.35 3.43,8.59l0.24,0.22c2.26,2.26 5.38,3.67 8.81,3.67l77.45,0c3.32,0 6.35,-1.31 8.59,-3.44l0.21,-0.23c2.26,-2.26 3.67,-5.38 3.67,-8.81l0,-74.3c0,-3.42 -1.41,-6.54 -3.67,-8.81c-2.26,-2.25 -5.38,-3.66 -8.81,-3.66l0,0z"/>
   </g>
  </g>
 </g>
</svg>