<svg width="136" height="147" viewBox="0 0 136 147" fill="none" xmlns="http://www.w3.org/2000/svg">
<path d="M37 2H134V140H40C38.3431 140 37 138.657 37 137V2Z" fill="white" stroke="black" stroke-width="4"/>
<line x1="94" y1="24" x2="116" y2="24" stroke="black" stroke-width="4"/>
<line x1="114" y1="22" x2="114" y2="46" stroke="black" stroke-width="4"/>
<line x1="50.2" y1="2" x2="20.2" y2="2" stroke="black" stroke-width="4"/>
<path d="M35.3104 140.267C35.86 140.677 35.9742 140.932 35.9962 141C35.9742 141.068 35.86 141.323 35.3104 141.733C34.5988 142.264 33.442 142.827 31.8328 143.335C28.6377 144.344 24.1003 145 19 145C13.8997 145 9.36225 144.344 6.16723 143.335C4.55804 142.827 3.40116 142.264 2.68963 141.733C2.14002 141.323 2.02579 141.068 2.00384 141C2.02579 140.932 2.14002 140.677 2.68963 140.267C3.40116 139.736 4.55804 139.173 6.16723 138.665C9.36225 137.656 13.8997 137 19 137C24.1003 137 28.6377 137.656 31.8328 138.665C33.442 139.173 34.5988 139.736 35.3104 140.267Z" fill="white" stroke="black" stroke-width="4"/>
<path d="M2 141L2 7" stroke="black" stroke-width="4"/>
<path d="M36 9C36 10.2625 34.8472 12.0083 31.5789 13.5565C28.4631 15.0324 24.018 16 19 16C13.982 16 9.53694 15.0324 6.42114 13.5565C3.15279 12.0083 2 10.2625 2 9C2 7.7375 3.15279 5.99168 6.42114 4.44351C9.53694 2.96761 13.982 2 19 2C24.018 2 28.4631 2.96761 31.5789 4.44351C34.8472 5.99168 36 7.7375 36 9Z" fill="white" stroke="black" stroke-width="4"/>
<rect x="4" y="92" width="31" height="50" rx="8" fill="white"/>
<circle cx="8.5" cy="137.5" r="4.5" fill="white"/>
<circle cx="30.5" cy="137.5" r="4.5" fill="white"/>
<line x1="116.167" y1="114" x2="116.167" y2="128" stroke="black" stroke-width="4"/>
<line x1="118" y1="127.455" x2="107" y2="127.455" stroke="black" stroke-width="4"/>
</svg>
