<?xml version="1.0" encoding="iso-8859-1"?>
<!-- Generator: Adobe Illustrator 19.0.0, SVG Export Plug-In . SVG Version: 6.00 Build 0)  -->
<svg version="1.1" id="Layer_1" xmlns="http://www.w3.org/2000/svg" xmlns:xlink="http://www.w3.org/1999/xlink" x="0px" y="0px"
	 viewBox="0 0 512 512" style="enable-background:new 0 0 512 512;" xml:space="preserve">
<g>
	<g>
		<path d="M461.485,0H50.515H31.927v30.417h18.588v452.698h21.968V512H102.9v-28.885H409.1V512h30.417v-28.885h21.968V30.417h18.588
			V0H461.485z M431.068,452.698H80.932V30.417h350.136V452.698z"/>
	</g>
</g>
<g>
	<g>
		<path d="M101.21,50.695v117.102v30.417V284.9v30.417V432.42h309.58V315.318V284.9v-86.686v-30.417V50.695H101.21z
			 M380.373,402.002H131.627v-86.685h248.745V402.002z M380.373,284.9H131.627v-86.686h248.745V284.9z M380.373,167.797H131.627
			V81.112h248.745V167.797z"/>
	</g>
</g>
<g>
	<g>
		<circle cx="256.001" cy="124.457" r="19.701"/>
	</g>
</g>
<g>
	<g>
		<circle cx="256.001" cy="241.553" r="19.701"/>
	</g>
</g>
<g>
	<g>
		<circle cx="256.001" cy="358.659" r="19.701"/>
	</g>
</g>
<g>
</g>
<g>
</g>
<g>
</g>
<g>
</g>
<g>
</g>
<g>
</g>
<g>
</g>
<g>
</g>
<g>
</g>
<g>
</g>
<g>
</g>
<g>
</g>
<g>
</g>
<g>
</g>
<g>
</g>
</svg>
